<svg version="1.1" id="Layer_1" xmlns="http://www.w3.org/2000/svg" xmlns:xlink="http://www.w3.org/1999/xlink" x="0px" y="0px"
	 width="100%" viewBox="0 0 1024 1024" enable-background="new 0 0 1024 1024" xml:space="preserve">
<path fill="#166AD5" opacity="1.000000" stroke="none" 
	d="
M466.000000,1025.000000 
	C310.666656,1025.000000 155.833328,1025.000000 1.000000,1025.000000 
	C1.000000,683.666687 1.000000,342.333344 1.000000,1.000000 
	C342.333344,1.000000 683.666687,1.000000 1025.000000,1.000000 
	C1025.000000,342.333344 1025.000000,683.666687 1025.000000,1025.000000 
	C838.833313,1025.000000 652.666687,1025.000000 466.000000,1025.000000 
M696.670166,324.823273 
	C675.385864,286.255066 642.671021,261.341705 602.091675,245.969437 
	C564.163818,231.601593 524.874512,228.716293 485.042358,234.050629 
	C430.937805,241.296310 384.590332,264.082123 347.983765,305.307892 
	C327.583557,328.282318 313.074280,354.632843 303.031158,383.549255 
	C292.465240,413.971008 287.438904,445.440491 285.691162,477.471924 
	C283.209229,522.958984 285.783875,568.047119 298.178589,612.133423 
	C311.016632,657.796631 332.393097,698.604675 369.296417,729.539429 
	C381.577179,739.833984 395.084656,749.150513 409.235718,756.637756 
	C451.853424,779.186584 497.570190,785.918640 545.277283,780.163391 
	C582.014648,775.731445 615.683228,763.377808 645.477783,741.185547 
	C682.219116,713.818970 705.286682,676.991333 718.987854,633.847412 
	C721.772156,625.079834 723.790894,616.069214 726.224243,606.939331 
	C692.840454,603.214661 660.360107,599.590759 628.592529,596.046387 
	C624.003906,607.162659 620.145935,618.153015 615.033020,628.524597 
	C606.544739,645.743164 595.516541,661.316589 578.990417,671.739868 
	C545.888184,692.618225 510.071686,692.611816 474.084808,682.166870 
	C450.748627,675.393799 435.159424,657.803833 423.110535,637.354309 
	C406.283356,608.794922 397.823883,577.455933 395.279297,544.713318 
	C392.764618,512.355469 392.718536,480.017853 398.595062,447.746826 
	C401.528717,431.636658 404.936829,415.836456 411.034912,400.716309 
	C422.149292,373.158569 439.475159,350.707886 466.412048,336.922607 
	C490.366913,324.663452 516.008789,323.197388 541.814331,328.191376 
	C573.895325,334.399811 597.100769,352.934021 610.582031,382.851624 
	C614.455383,391.447418 617.185730,400.597961 619.912842,409.652985 
	C621.185486,413.878632 623.098877,414.453705 627.075928,413.677673 
	C647.966858,409.601257 668.914673,405.817474 689.835815,401.895081 
	C700.231201,399.946106 710.611755,397.917938 721.390930,395.850403 
	C717.019714,370.650848 709.029053,347.375854 696.670166,324.823273 
z"/>
<path fill="#FCFCF9" opacity="1.000000" stroke="none" 
	d="
M696.832458,325.153320 
	C709.029053,347.375854 717.019714,370.650848 721.390930,395.850403 
	C710.611755,397.917938 700.231201,399.946106 689.835815,401.895081 
	C668.914673,405.817474 647.966858,409.601257 627.075928,413.677673 
	C623.098877,414.453705 621.185486,413.878632 619.912842,409.652985 
	C617.185730,400.597961 614.455383,391.447418 610.582031,382.851624 
	C597.100769,352.934021 573.895325,334.399811 541.814331,328.191376 
	C516.008789,323.197388 490.366913,324.663452 466.412048,336.922607 
	C439.475159,350.707886 422.149292,373.158569 411.034912,400.716309 
	C404.936829,415.836456 401.528717,431.636658 398.595062,447.746826 
	C392.718536,480.017853 392.764618,512.355469 395.279297,544.713318 
	C397.823883,577.455933 406.283356,608.794922 423.110535,637.354309 
	C435.159424,657.803833 450.748627,675.393799 474.084808,682.166870 
	C510.071686,692.611816 545.888184,692.618225 578.990417,671.739868 
	C595.516541,661.316589 606.544739,645.743164 615.033020,628.524597 
	C620.145935,618.153015 624.003906,607.162659 628.592529,596.046387 
	C660.360107,599.590759 692.840454,603.214661 726.224243,606.939331 
	C723.790894,616.069214 721.772156,625.079834 718.987854,633.847412 
	C705.286682,676.991333 682.219116,713.818970 645.477783,741.185547 
	C615.683228,763.377808 582.014648,775.731445 545.277283,780.163391 
	C497.570190,785.918640 451.853424,779.186584 409.235718,756.637756 
	C395.084656,749.150513 381.577179,739.833984 369.296417,729.539429 
	C332.393097,698.604675 311.016632,657.796631 298.178589,612.133423 
	C285.783875,568.047119 283.209229,522.958984 285.691162,477.471924 
	C287.438904,445.440491 292.465240,413.971008 303.031158,383.549255 
	C313.074280,354.632843 327.583557,328.282318 347.983765,305.307892 
	C384.590332,264.082123 430.937805,241.296310 485.042358,234.050629 
	C524.874512,228.716293 564.163818,231.601593 602.091675,245.969437 
	C642.671021,261.341705 675.385864,286.255066 696.832458,325.153320 
z"/>
</svg>